<!-- Generated by IcoMoon.io -->
<svg version="1.1" xmlns="http://www.w3.org/2000/svg" width="32" height="32" viewBox="0 0 32 32">
<title>brightness-up</title>
<path fill="#be483e" d="M16 22.4c-3.535 0-6.4-2.865-6.4-6.4s2.865-6.4 6.4-6.4v0c3.535 0 6.4 2.865 6.4 6.4s-2.865 6.4-6.4 6.4v0zM14.4 1.6c0-0.884 0.716-1.6 1.6-1.6s1.6 0.716 1.6 1.6v0 3.2c0 0.884-0.716 1.6-1.6 1.6s-1.6-0.716-1.6-1.6v0-3.2zM25.040 4.704c0.295-0.343 0.73-0.559 1.215-0.559 0.884 0 1.6 0.716 1.6 1.6 0 0.485-0.216 0.92-0.557 1.213l-0.002 0.002-2.24 2.24c-0.295 0.343-0.73 0.559-1.215 0.559-0.884 0-1.6-0.716-1.6-1.6 0-0.485 0.216-0.92 0.557-1.213l0.002-0.002 2.24-2.24zM30.384 14.4c0.884 0 1.6 0.716 1.6 1.6s-0.716 1.6-1.6 1.6v0h-3.168c-0.884 0-1.6-0.716-1.6-1.6s0.716-1.6 1.6-1.6v0h3.168zM27.296 25.040c0.343 0.295 0.559 0.73 0.559 1.215 0 0.884-0.716 1.6-1.6 1.6-0.485 0-0.92-0.216-1.213-0.557l-0.002-0.002-2.24-2.24c-0.343-0.295-0.559-0.73-0.559-1.215 0-0.884 0.716-1.6 1.6-1.6 0.485 0 0.92 0.216 1.213 0.557l0.002 0.002 2.24 2.24zM17.6 30.384c0 0.884-0.716 1.6-1.6 1.6s-1.6-0.716-1.6-1.6v0-3.168c0-0.884 0.716-1.6 1.6-1.6s1.6 0.716 1.6 1.6v0 3.168zM6.96 27.296c-0.295 0.343-0.73 0.559-1.215 0.559-0.884 0-1.6-0.716-1.6-1.6 0-0.485 0.216-0.92 0.557-1.213l0.002-0.002 2.24-2.24c0.295-0.343 0.73-0.559 1.215-0.559 0.884 0 1.6 0.716 1.6 1.6 0 0.485-0.216 0.92-0.557 1.213l-0.002 0.002-2.24 2.24zM1.616 17.6c-0.884 0-1.6-0.716-1.6-1.6s0.716-1.6 1.6-1.6v0h3.168c0.884 0 1.6 0.716 1.6 1.6s-0.716 1.6-1.6 1.6v0h-3.168zM4.704 6.96c-0.343-0.295-0.559-0.73-0.559-1.215 0-0.884 0.716-1.6 1.6-1.6 0.485 0 0.92 0.216 1.213 0.557l0.002 0.002 2.24 2.24c0.343 0.295 0.559 0.73 0.559 1.215 0 0.884-0.716 1.6-1.6 1.6-0.485 0-0.92-0.216-1.213-0.557l-0.002-0.002-2.24-2.24z"></path>
</svg>
