<?xml version="1.0" encoding="iso-8859-1"?>
<!-- Generator: Adobe Illustrator 19.0.0, SVG Export Plug-In . SVG Version: 6.00 Build 0)  -->
<svg version="1.1" id="Layer_1" xmlns="http://www.w3.org/2000/svg" xmlns:xlink="http://www.w3.org/1999/xlink" x="0px" y="0px"
	 viewBox="0 0 511.998 511.998" style="enable-background:new 0 0 511.998 511.998;" xml:space="preserve">
<path style="fill:#A67CAB;" d="M255.999,11.478c49.609,0,89.968,40.36,89.968,89.968v89.968H166.03v-89.968
	C166.03,51.837,206.39,11.478,255.999,11.478z"/>
<path style="fill:#FFCEB3;" d="M198.622,99.462v22.548c0,29.804,13.406,54.861,40.926,62.129l-11.144,32.981h54.675l-11.144-32.841
	c27.782-7.09,41.439-32.278,41.439-62.268V99.462H198.622z"/>
<g>
	<path style="fill:#FFA5B5;" d="M183.457,247.649c-1.901-15.969,10.571-30.014,26.653-30.014h2.448l-11.484,1.562l-61.437,25.256
		l-51.493-78.358L49.289,191.63l56.648,86.199c9.708,14.772,28.778,20.193,44.804,12.736l38.238-17.791L183.457,247.649z"/>
	<path style="fill:#FFA5B5;" d="M423.857,166.097l-51.493,78.358l-61.433-25.256l-11.489-1.562h2.448
		c16.082,0,28.554,14.045,26.653,30.014l-5.522,25.123l38.238,17.791c16.026,7.457,35.096,2.036,44.804-12.736l56.648-86.199
		L423.857,166.097z"/>
</g>
<path style="fill:#FF738D;" d="M332.115,406.287H179.884l18.197-79.231c0.953-4.146,0.972-8.451,0.06-12.606l-14.683-66.801
	c-1.901-15.969,10.571-30.015,26.653-30.015h91.778c16.082,0,28.554,14.045,26.653,30.015l-14.683,66.801
	c-0.914,4.155-0.893,8.46,0.06,12.606L332.115,406.287z"/>
<path d="M284.601,328.641c-0.758,0-1.504-0.069-2.25-0.218c-0.735-0.149-1.458-0.379-2.146-0.666
	c-0.689-0.287-1.354-0.643-1.974-1.056c-0.631-0.413-1.217-0.895-1.745-1.423c-0.539-0.528-1.01-1.113-1.435-1.745
	c-0.413-0.62-0.769-1.285-1.056-1.974c-0.287-0.7-0.505-1.423-0.654-2.158c-0.149-0.735-0.218-1.492-0.218-2.238
	c0-0.746,0.069-1.504,0.218-2.238c0.149-0.735,0.367-1.458,0.654-2.146c0.287-0.7,0.643-1.366,1.056-1.986
	c0.425-0.631,0.895-1.217,1.435-1.745c0.528-0.528,1.113-1.01,1.745-1.423c0.62-0.413,1.285-0.769,1.974-1.056
	c0.689-0.287,1.412-0.517,2.146-0.654c1.481-0.298,3.007-0.298,4.488,0c0.735,0.138,1.458,0.367,2.146,0.654
	c0.689,0.287,1.354,0.643,1.986,1.056c0.62,0.413,1.217,0.895,1.745,1.423s1.01,1.113,1.423,1.745
	c0.413,0.62,0.769,1.285,1.056,1.986c0.287,0.689,0.505,1.412,0.654,2.146c0.149,0.735,0.23,1.492,0.23,2.238
	c0,0.746-0.08,1.504-0.23,2.238c-0.149,0.735-0.367,1.458-0.654,2.158c-0.287,0.689-0.643,1.354-1.056,1.974
	c-0.413,0.631-0.895,1.217-1.423,1.745c-0.528,0.528-1.125,1.01-1.745,1.423c-0.631,0.413-1.297,0.769-1.986,1.056
	c-0.689,0.287-1.412,0.517-2.146,0.666C286.093,328.572,285.347,328.641,284.601,328.641z"/>
<path d="M487.617,419.647c-0.746,0-1.504-0.08-2.25-0.23c-0.723-0.149-1.446-0.367-2.146-0.654
	c-0.689-0.287-1.354-0.643-1.974-1.056c-0.631-0.413-1.217-0.895-1.745-1.423c-0.528-0.528-1.01-1.113-1.435-1.745
	c-0.413-0.62-0.769-1.285-1.056-1.986c-0.287-0.689-0.505-1.412-0.654-2.146c-0.149-0.735-0.218-1.492-0.218-2.238
	c0-0.746,0.069-1.504,0.218-2.238c0.149-0.735,0.367-1.458,0.654-2.158c0.287-0.689,0.643-1.354,1.056-1.974
	c0.425-0.631,0.907-1.217,1.435-1.745c0.528-0.528,1.113-1.01,1.745-1.423c0.62-0.425,1.285-0.769,1.974-1.056
	c0.7-0.287,1.423-0.517,2.146-0.654c1.481-0.298,3.007-0.298,4.488,0c0.735,0.138,1.458,0.367,2.146,0.654
	c0.7,0.287,1.366,0.631,1.986,1.056c0.631,0.413,1.217,0.895,1.745,1.423c0.528,0.528,1.01,1.113,1.423,1.745
	c0.413,0.62,0.769,1.285,1.056,1.974c0.287,0.7,0.505,1.423,0.654,2.158c0.149,0.735,0.23,1.492,0.23,2.238
	c0,0.746-0.08,1.504-0.23,2.238c-0.149,0.735-0.367,1.458-0.654,2.146c-0.287,0.7-0.643,1.366-1.056,1.986
	c-0.413,0.631-0.895,1.217-1.423,1.745s-1.113,1.01-1.745,1.423c-0.62,0.413-1.285,0.769-1.986,1.056
	c-0.689,0.287-1.412,0.505-2.146,0.654C489.121,419.566,488.363,419.647,487.617,419.647z"/>
<path d="M24.381,419.647c-0.746,0-1.504-0.08-2.238-0.23c-0.735-0.149-1.458-0.367-2.146-0.654c-0.7-0.287-1.366-0.643-1.986-1.056
	c-0.631-0.413-1.217-0.895-1.745-1.423s-1.01-1.113-1.423-1.745c-0.413-0.62-0.769-1.285-1.056-1.986
	c-0.287-0.689-0.505-1.412-0.654-2.146c-0.149-0.735-0.23-1.492-0.23-2.238c0-3.019,1.228-5.98,3.363-8.115
	c0.528-0.528,1.113-1.01,1.745-1.435c0.62-0.413,1.285-0.769,1.986-1.056c0.689-0.287,1.412-0.505,2.146-0.654
	c3.73-0.746,7.69,0.482,10.353,3.145c2.146,2.135,3.363,5.096,3.363,8.115c0,0.746-0.069,1.504-0.218,2.238
	c-0.149,0.735-0.367,1.458-0.654,2.146c-0.287,0.7-0.643,1.366-1.056,1.986c-0.425,0.631-0.907,1.217-1.435,1.745
	C30.361,418.418,27.4,419.647,24.381,419.647z"/>
<g>
	<path style="fill:#6D529F;" d="M310.535,500.52l29.272-60.797l-186.278-89.689c-16.788-8.084-36.952-1.026-45.035,15.762l0,0
		c-8.084,16.788-1.026,36.951,15.762,45.035L310.535,500.52z"/>
	<path style="fill:#6D529F;" d="M201.464,500.52l-29.272-60.797l186.278-89.689c16.788-8.084,36.952-1.026,45.035,15.762l0,0
		c8.084,16.788,1.026,36.951-15.762,45.035L201.464,500.52z"/>
</g>
<path d="M331.156,289.219l25.259,11.752c6.316,2.939,13.032,4.343,19.684,4.343c15.495,0,30.641-7.618,39.554-21.182l46.621-70.941
	c0.266-0.32,0.527-0.648,0.762-1.004l19.859-29.928c3.505-5.282,2.064-12.405-3.217-15.91c-5.282-3.504-12.406-2.064-15.91,3.217
	l-4.17,6.284l-29.438-19.345c-2.545-1.672-5.648-2.265-8.629-1.648s-5.595,2.392-7.266,4.937l-46.294,70.446l-50.358-20.704
	c-0.003-0.001-0.007-0.002-0.009-0.003c-0.698-0.313-1.406-0.6-2.121-0.872c-0.067-0.025-0.131-0.056-0.199-0.081
	c-0.321-0.132-0.648-0.248-0.98-0.35c-0.087-0.03-0.177-0.055-0.265-0.085c-0.184-0.062-0.37-0.118-0.554-0.178
	c-0.406-0.13-0.816-0.253-1.227-0.368c-0.199-0.056-0.397-0.111-0.597-0.164c-0.451-0.119-0.906-0.228-1.361-0.332
	c-0.143-0.032-0.286-0.069-0.429-0.1c-0.593-0.126-1.19-0.239-1.789-0.337c-0.154-0.025-0.308-0.045-0.461-0.068
	c-0.458-0.069-0.917-0.132-1.378-0.185c-0.204-0.023-0.41-0.044-0.614-0.064c-0.435-0.042-0.871-0.077-1.31-0.106
	c-0.191-0.013-0.38-0.026-0.57-0.036c-0.617-0.03-1.236-0.049-1.857-0.049h-2.448h-7.96l-1.108-3.265h55.595
	c6.339,0,11.478-5.139,11.478-11.478v-89.966C357.445,45.509,311.936,0,255.999,0S154.553,45.509,154.553,101.446v89.968
	c0,6.339,5.139,11.478,11.478,11.478h55.065l-1.103,3.265h-7.435h-2.448c-0.622,0-1.242,0.02-1.861,0.049
	c-0.189,0.009-0.378,0.024-0.567,0.036c-0.44,0.028-0.878,0.063-1.315,0.106c-0.204,0.021-0.407,0.041-0.612,0.064
	c-0.461,0.053-0.922,0.116-1.381,0.185c-0.154,0.023-0.308,0.042-0.46,0.068c-0.606,0.1-1.209,0.212-1.807,0.34
	c-0.12,0.025-0.239,0.056-0.359,0.084c-0.481,0.108-0.958,0.223-1.434,0.349c-0.192,0.051-0.382,0.104-0.573,0.158
	c-0.415,0.117-0.83,0.241-1.241,0.372c-0.186,0.06-0.372,0.117-0.557,0.179c-0.099,0.033-0.199,0.062-0.297,0.095
	c-0.295,0.092-0.587,0.196-0.873,0.312c-0.072,0.026-0.142,0.061-0.213,0.088c-0.739,0.28-1.471,0.576-2.192,0.901
	c-0.01,0.005-0.022,0.008-0.032,0.013l-50.309,20.682l-46.294-70.445c-1.672-2.545-4.286-4.32-7.266-4.937
	c-2.981-0.617-6.083-0.024-8.629,1.648l-29.044,19.087l-3.511-5.455c-3.431-5.331-10.534-6.87-15.863-3.441
	c-5.33,3.431-6.87,10.533-3.44,15.863l8.825,13.713c0.251,0.567,0.539,1.125,0.892,1.661l56.647,86.199
	c8.915,13.564,24.057,21.182,39.554,21.181c6.65,0,13.368-1.404,19.684-4.343l25.259-11.752l6.088,27.695
	c0.545,2.479,0.533,5.097-0.036,7.572l-5.971,25.998l-22.415-10.792c-10.882-5.241-23.154-5.928-34.552-1.939
	c-11.4,3.991-20.563,12.18-25.803,23.063c-5.629,11.691-5.75,24.626-1.416,35.873h-0.506H58.011
	c-6.339,0-11.478,5.139-11.478,11.478c0,6.339,5.139,11.478,11.478,11.478h38.218h20.178c0.934,0.535,1.886,1.051,2.871,1.526
	l41.537,20c0.155,1.214,0.492,2.408,1.033,3.531l29.272,60.797c1.978,4.107,6.077,6.501,10.351,6.501
	c1.67,0,3.366-0.366,4.971-1.139l49.556-23.861l49.556,23.861c1.606,0.772,3.301,1.139,4.971,1.139c4.272,0,8.373-2.395,10.35-6.501
	l29.272-60.797c0.541-1.124,0.879-2.316,1.033-3.531l41.537-20c0.986-0.474,1.937-0.992,2.872-1.526h58.396
	c6.339,0,11.478-5.139,11.478-11.478c0-6.339-5.138-11.478-11.478-11.478H415.26c4.334-11.247,4.212-24.183-1.417-35.874
	c-5.24-10.882-14.403-19.072-25.803-23.062c-11.4-3.988-23.67-3.301-34.552,1.939l-22.415,10.792l-5.971-25.999
	c-0.568-2.473-0.581-5.093-0.034-7.572L331.156,289.219z M339.752,250.113c0.08-0.366,0.142-0.736,0.187-1.108
	c0.096-0.807,0.158-1.614,0.202-2.421c0.014-0.244,0.02-0.489,0.029-0.735c0.021-0.59,0.029-1.179,0.023-1.766
	c-0.001-0.148,0.009-0.296,0.006-0.444L368,255.069c5.08,2.088,10.936,0.282,13.956-4.312l45.191-68.765l19.669,12.926
	l-50.343,76.607c-6.532,9.94-19.59,13.65-30.37,8.633l-29.895-13.91L339.752,250.113z M145.899,280.158
	c-10.782,5.017-23.838,1.306-30.37-8.633l-48.048-73.114l-2.262-3.514l19.636-12.904l45.191,68.765
	c3.02,4.594,8.872,6.402,13.956,4.312l27.801-11.429c-0.003,0.147,0.007,0.295,0.006,0.442c-0.006,0.591,0.001,1.182,0.023,1.774
	c0.009,0.242,0.015,0.483,0.028,0.724c0.045,0.808,0.106,1.616,0.202,2.424c0.045,0.372,0.107,0.741,0.187,1.108l3.547,16.136
	L145.899,280.158z M177.509,179.937v-78.491c0-43.28,35.211-78.491,78.491-78.491s78.491,35.211,78.491,78.491v78.491h-31.682
	c14.02-13.46,22.045-33.754,22.045-57.926V99.462c0-6.339-5.139-11.478-11.478-11.478H198.625c-6.339,0-11.478,5.139-11.478,11.478
	v22.549c0,24.465,7.804,44.584,21.758,57.926H177.509z M210.101,122.01v-11.071h91.797v11.071c0,12.862-3.197,43.592-32.8,51.148
	c-3.099,0.791-5.727,2.838-7.252,5.649c-1.524,2.811-1.808,6.131-0.779,9.159l5.997,17.676h-22.667l6.025-17.829
	c1.017-3.012,0.74-6.31-0.766-9.11c-1.506-2.799-4.104-4.85-7.178-5.662C213.256,165.323,210.101,134.783,210.101,122.01z
	 M198.622,234.274c0.351-0.396,0.721-0.767,1.103-1.12c0.127-0.118,0.264-0.223,0.395-0.336c0.261-0.225,0.522-0.449,0.795-0.654
	c0.163-0.123,0.333-0.234,0.5-0.35c0.254-0.176,0.508-0.349,0.771-0.508c0.184-0.111,0.372-0.212,0.559-0.316
	c0.225-0.123,0.452-0.24,0.683-0.352l0.648-0.267l9.257-1.259h85.329l9.261,1.26l0.623,0.256c0.235,0.114,0.468,0.234,0.698,0.359
	c0.186,0.102,0.373,0.203,0.556,0.312c0.265,0.161,0.522,0.335,0.778,0.512c0.166,0.115,0.335,0.225,0.498,0.347
	c0.273,0.207,0.536,0.43,0.798,0.655c0.131,0.114,0.269,0.218,0.396,0.336c0.382,0.354,0.753,0.725,1.105,1.121
	c2.848,3.207,4.194,7.286,3.819,11.533L302.65,311.98c-1.269,5.776-1.242,11.876,0.083,17.64l7.136,31.071l-53.869,25.937
	l-53.868-25.933l7.136-31.071c0.075-0.326,0.131-0.657,0.197-0.984h41.505c6.339,0,11.478-5.138,11.478-11.478
	c0-6.339-5.139-11.478-11.478-11.478h-43.004l-13.161-59.878C194.427,241.56,195.774,237.482,198.622,234.274z M129.237,400.489
	c-11.06-5.324-15.725-18.655-10.401-29.714c2.58-5.358,7.092-9.39,12.703-11.355c2.408-0.842,4.893-1.261,7.371-1.261
	c3.299,0,6.581,0.743,9.64,2.215l80.992,38.996l-51.314,24.707L129.237,400.489z M305.172,485.2l-22.715-10.937l36.426-17.539
	L305.172,485.2z M363.449,360.374c5.357-2.579,11.398-2.918,17.011-0.954c5.613,1.964,10.124,5.997,12.703,11.354
	c5.326,11.06,0.66,24.39-10.401,29.716L206.826,485.2l-19.315-40.114L363.449,360.374z"/>
<g>
</g>
<g>
</g>
<g>
</g>
<g>
</g>
<g>
</g>
<g>
</g>
<g>
</g>
<g>
</g>
<g>
</g>
<g>
</g>
<g>
</g>
<g>
</g>
<g>
</g>
<g>
</g>
<g>
</g>
</svg>
