<?xml version="1.0" standalone="no"?>
<!DOCTYPE svg PUBLIC "-//W3C//DTD SVG 20010904//EN"
 "http://www.w3.org/TR/2001/REC-SVG-20010904/DTD/svg10.dtd">
<svg version="1.0" xmlns="http://www.w3.org/2000/svg"
 width="925.000000pt" height="925.000000pt" viewBox="0 0 925.000000 925.000000"
 preserveAspectRatio="xMidYMid meet">
<metadata>
Created by potrace 1.14, written by Peter Selinger 2001-2017
</metadata>
<g transform="translate(0.000000,925.000000) scale(0.100000,-0.100000)"
fill="#000000" stroke="none">
<path d="M4593 7413 c-407 -512 -716 -1020 -943 -1550 l-22 -51 -96 62 c-243
157 -489 285 -887 461 -186 83 -804 300 -816 287 -14 -15 -32 -402 -33 -692 0
-208 11 -536 19 -550 1 -3 6 -47 9 -97 4 -51 9 -103 11 -115 3 -13 6 -43 9
-68 4 -39 14 -107 42 -280 3 -19 9 -50 14 -68 11 -41 16 -39 -215 -47 -99 -3
-193 -7 -210 -9 -16 -2 -66 -7 -110 -10 -44 -4 -93 -9 -110 -11 -184 -23 -281
-37 -440 -67 -60 -11 -121 -22 -135 -25 -86 -15 -343 -76 -480 -113 -58 -16
-124 -34 -148 -40 l-43 -11 34 -62 c19 -34 47 -84 62 -112 56 -102 239 -402
308 -504 358 -537 739 -963 1158 -1294 94 -74 313 -227 374 -261 17 -9 57 -33
90 -52 300 -175 665 -308 985 -358 256 -41 554 -38 765 8 93 20 132 31 215 58
205 66 420 188 561 317 l67 60 33 -32 c104 -100 248 -199 388 -264 97 -46 270
-107 330 -118 19 -3 37 -7 40 -9 3 -2 22 -7 41 -10 19 -3 46 -8 60 -11 148
-31 499 -37 637 -11 10 2 38 7 63 10 309 42 680 178 1030 377 104 59 335 218
452 311 258 207 551 499 751 752 27 34 56 70 66 81 99 118 310 421 448 645 89
143 253 428 266 462 6 16 -16 27 -88 44 -5 1 -46 12 -90 24 -368 100 -844 188
-1170 216 -44 3 -88 8 -98 10 -13 2 -348 16 -425 17 -14 0 -14 5 11 152 9 50
18 108 21 130 3 22 10 74 16 115 12 85 18 144 37 380 10 126 10 679 0 855 -11
200 -17 278 -20 282 -5 4 -415 -134 -564 -190 -330 -124 -755 -326 -970 -460
-21 -13 -45 -27 -53 -30 -8 -4 -46 -27 -85 -51 -38 -25 -73 -42 -76 -38 -3 4
-14 27 -24 52 -41 98 -176 373 -230 471 -32 57 -66 118 -75 134 -91 162 -285
458 -437 664 -42 57 -191 250 -219 284 l-31 38 -70 -88z m197 -461 c497 -695
815 -1397 934 -2057 3 -16 8 -39 10 -50 11 -54 21 -146 31 -265 6 -79 7 -395
1 -430 -3 -14 -7 -55 -11 -93 -3 -37 -8 -73 -10 -80 -2 -6 -6 -30 -9 -52 -6
-58 -32 -166 -67 -280 -160 -528 -513 -929 -926 -1055 -79 -24 -101 -23 -194
10 -383 135 -710 503 -872 980 -44 130 -82 284 -93 380 -3 25 -8 52 -10 60
-18 53 -25 433 -11 590 52 596 279 1230 675 1890 139 232 409 622 427 617 5
-2 61 -76 125 -165z m-2535 -713 c77 -28 154 -57 170 -64 17 -7 86 -36 155
-65 169 -72 466 -220 625 -312 166 -96 335 -205 335 -217 0 -4 -7 -28 -16 -52
-32 -92 -95 -328 -123 -463 -30 -145 -35 -174 -46 -261 -4 -27 -8 -61 -11 -75
-2 -14 -7 -68 -10 -120 -4 -52 -7 -104 -8 -115 -2 -24 -1 -24 -134 21 -290 98
-697 174 -991 186 -29 1 -55 6 -57 12 -6 18 -52 277 -59 335 -4 30 -8 62 -10
72 -2 10 -6 51 -10 91 -3 40 -8 80 -10 88 -2 8 -7 53 -10 100 -3 47 -8 123
-11 170 -8 114 -8 701 0 727 6 20 9 20 44 7 20 -7 100 -36 177 -65z m4968
-339 c-1 -190 -5 -367 -7 -395 -12 -146 -18 -212 -21 -235 -2 -14 -6 -54 -10
-90 -3 -36 -8 -72 -10 -80 -2 -8 -7 -40 -10 -70 -6 -48 -31 -194 -50 -285 -8
-39 -19 -45 -85 -46 -30 0 -68 -2 -85 -4 -16 -2 -57 -6 -90 -10 -258 -26 -529
-83 -768 -161 -43 -15 -81 -24 -84 -21 -2 3 -6 27 -8 54 -8 113 -16 209 -20
223 -2 8 -6 37 -10 64 -8 67 -33 194 -57 296 -11 47 -21 93 -23 102 -9 42 -48
172 -80 267 -19 58 -35 108 -35 112 0 7 120 85 225 146 39 22 90 52 115 67 75
43 409 209 505 251 50 21 110 47 134 57 68 30 215 87 346 133 l120 42 5 -36
c3 -20 5 -191 3 -381z m-5249 -1477 c184 -663 460 -1170 850 -1559 396 -395
893 -621 1358 -619 65 0 118 -1 118 -2 0 -4 -131 -83 -170 -102 -123 -61 -308
-119 -445 -140 -134 -20 -157 -22 -288 -23 -372 -2 -748 94 -1115 284 -160 82
-275 154 -452 279 -218 153 -575 488 -756 709 -16 19 -34 40 -40 45 -18 15
-192 239 -265 340 -183 252 -419 628 -401 639 5 3 19 7 33 9 13 3 61 15 106
26 46 12 95 23 110 25 16 2 48 9 73 14 25 6 61 13 80 17 19 3 58 10 85 15 73
15 84 17 145 26 30 4 57 8 60 9 4 1 130 17 155 20 6 1 39 5 75 10 36 4 79 9
95 10 88 5 260 18 262 19 1 1 71 2 156 4 l155 3 16 -58z m5766 42 c96 -6 192
-16 215 -20 11 -3 47 -7 80 -10 33 -3 87 -10 120 -15 33 -5 76 -11 95 -14 32
-5 270 -49 330 -61 144 -29 310 -70 310 -76 0 -5 -32 -61 -71 -126 -480 -803
-1057 -1416 -1684 -1793 -81 -49 -343 -180 -359 -180 -6 0 -24 -7 -39 -15 -31
-16 -250 -91 -288 -99 -13 -2 -73 -16 -134 -29 -60 -14 -139 -28 -175 -32 -36
-4 -74 -9 -85 -12 -31 -6 -325 -6 -372 1 -24 3 -62 9 -85 12 -140 18 -340 80
-471 145 -65 33 -167 95 -167 102 0 1 55 2 123 3 67 0 147 4 177 8 30 4 66 10
80 11 14 2 68 15 121 29 835 217 1513 1004 1810 2100 l24 89 190 -7 c105 -3
219 -8 255 -11z m-5362 -10 c117 -13 139 -16 212 -29 149 -26 203 -37 305 -63
102 -26 249 -72 365 -116 l65 -24 6 -74 c8 -88 20 -196 25 -224 2 -10 6 -35 9
-55 5 -31 48 -220 59 -260 98 -338 279 -653 504 -877 86 -85 211 -185 283
-226 21 -12 39 -25 39 -29 0 -14 -221 2 -323 23 -146 30 -265 71 -402 139
-547 269 -985 816 -1235 1545 -21 60 -43 128 -49 150 -6 22 -17 61 -26 88
l-14 47 67 -5 c37 -3 86 -8 110 -10z m4672 9 c0 -7 -22 -77 -67 -219 -297
-923 -905 -1573 -1625 -1739 -109 -25 -293 -42 -283 -26 3 5 29 22 58 39 78
45 202 148 293 243 194 204 332 434 432 719 38 110 85 282 97 363 4 21 8 48
11 59 10 52 24 180 29 257 3 46 9 88 13 92 10 10 197 71 312 102 106 28 320
72 397 81 27 3 59 7 70 9 11 3 56 7 99 11 43 4 80 8 81 9 5 4 83 4 83 0z"/>
</g>
</svg>
